<svg width="160" height="160" viewBox="0 0 160 160" fill="none" xmlns="http://www.w3.org/2000/svg">
  <rect width="160" height="160" rx="80" fill="#FFB547" />
  <path d="M80 36C93.8071 36 105 47.1929 105 61C105 74.8071 93.8071 86 80 86C66.1929 86 55 74.8071 55 61C55 47.1929 66.1929 36 80 36Z" fill="#F4F6F8" />
  <path d="M40 122C46 96 62 82 80 82C98 82 114 96 120 122C120 122 104 136 80 136C56 136 40 122 40 122Z" fill="#1A2B6D" fill-opacity="0.9" />
  <path d="M60 56C60 48.268 66.268 42 74 42H86C93.732 42 100 48.268 100 56V64H60V56Z" fill="#1A2B6D" fill-opacity="0.4" />
</svg>
