<svg width="160" height="160" viewBox="0 0 160 160" fill="none" xmlns="http://www.w3.org/2000/svg">
  <rect width="160" height="160" rx="80" fill="#1A2B6D" />
  <path d="M80 34C90.4934 34 99 42.5066 99 53C99 63.4934 90.4934 72 80 72C69.5066 72 61 63.4934 61 53C61 42.5066 69.5066 34 80 34Z" fill="#FFB547" />
  <path d="M40 122C42.2091 96 59 80 80 80C101 80 117.791 96 120 122C120 122 100 134 80 134C60 134 40 122 40 122Z" fill="#F4F6F8" />
  <path d="M56 52C56 45.3726 61.3726 40 68 40H92C98.6274 40 104 45.3726 104 52V58H56V52Z" fill="#101214" fill-opacity="0.35" />
</svg>
